<svg id="my-svg" width="100%" xmlns="http://www.w3.org/2000/svg" xmlns:xlink="http://www.w3.org/1999/xlink" style="max-width: 4190px; background-color: white;" viewBox="100 -61 4190 677.4468383789062" role="graphics-document document" aria-roledescription="timeline"><style>#my-svg{font-family:"trebuchet ms",verdana,arial,sans-serif;font-size:16px;fill:#333;}@keyframes edge-animation-frame{from{stroke-dashoffset:0;}}@keyframes dash{to{stroke-dashoffset:0;}}#my-svg .edge-animation-slow{stroke-dasharray:9,5!important;stroke-dashoffset:900;animation:dash 50s linear infinite;stroke-linecap:round;}#my-svg .edge-animation-fast{stroke-dasharray:9,5!important;stroke-dashoffset:900;animation:dash 20s linear infinite;stroke-linecap:round;}#my-svg .error-icon{fill:#552222;}#my-svg .error-text{fill:#552222;stroke:#552222;}#my-svg .edge-thickness-normal{stroke-width:1px;}#my-svg .edge-thickness-thick{stroke-width:3.5px;}#my-svg .edge-pattern-solid{stroke-dasharray:0;}#my-svg .edge-thickness-invisible{stroke-width:0;fill:none;}#my-svg .edge-pattern-dashed{stroke-dasharray:3;}#my-svg .edge-pattern-dotted{stroke-dasharray:2;}#my-svg .marker{fill:#333333;stroke:#333333;}#my-svg .marker.cross{stroke:#333333;}#my-svg svg{font-family:"trebuchet ms",verdana,arial,sans-serif;font-size:16px;}#my-svg p{margin:0;}#my-svg .edge{stroke-width:3;}#my-svg .section--1 rect,#my-svg .section--1 path,#my-svg .section--1 circle,#my-svg .section--1 path{fill:hsl(240, 100%, 76.2745098039%);}#my-svg .section--1 text{fill:#ffffff;}#my-svg .node-icon--1{font-size:40px;color:#ffffff;}#my-svg .section-edge--1{stroke:hsl(240, 100%, 76.2745098039%);}#my-svg .edge-depth--1{stroke-width:17;}#my-svg .section--1 line{stroke:hsl(60, 100%, 86.2745098039%);stroke-width:3;}#my-svg .lineWrapper line{stroke:#ffffff;}#my-svg .disabled,#my-svg .disabled circle,#my-svg .disabled text{fill:lightgray;}#my-svg .disabled text{fill:#efefef;}#my-svg .section-0 rect,#my-svg .section-0 path,#my-svg .section-0 circle,#my-svg .section-0 path{fill:hsl(60, 100%, 73.5294117647%);}#my-svg .section-0 text{fill:black;}#my-svg .node-icon-0{font-size:40px;color:black;}#my-svg .section-edge-0{stroke:hsl(60, 100%, 73.5294117647%);}#my-svg .edge-depth-0{stroke-width:14;}#my-svg .section-0 line{stroke:hsl(240, 100%, 83.5294117647%);stroke-width:3;}#my-svg .lineWrapper line{stroke:black;}#my-svg .disabled,#my-svg .disabled circle,#my-svg .disabled text{fill:lightgray;}#my-svg .disabled text{fill:#efefef;}#my-svg .section-1 rect,#my-svg .section-1 path,#my-svg .section-1 circle,#my-svg .section-1 path{fill:hsl(80, 100%, 76.2745098039%);}#my-svg .section-1 text{fill:black;}#my-svg .node-icon-1{font-size:40px;color:black;}#my-svg .section-edge-1{stroke:hsl(80, 100%, 76.2745098039%);}#my-svg .edge-depth-1{stroke-width:11;}#my-svg .section-1 line{stroke:hsl(260, 100%, 86.2745098039%);stroke-width:3;}#my-svg .lineWrapper line{stroke:black;}#my-svg .disabled,#my-svg .disabled circle,#my-svg .disabled text{fill:lightgray;}#my-svg .disabled text{fill:#efefef;}#my-svg .section-2 rect,#my-svg .section-2 path,#my-svg .section-2 circle,#my-svg .section-2 path{fill:hsl(270, 100%, 76.2745098039%);}#my-svg .section-2 text{fill:#ffffff;}#my-svg .node-icon-2{font-size:40px;color:#ffffff;}#my-svg .section-edge-2{stroke:hsl(270, 100%, 76.2745098039%);}#my-svg .edge-depth-2{stroke-width:8;}#my-svg .section-2 line{stroke:hsl(90, 100%, 86.2745098039%);stroke-width:3;}#my-svg .lineWrapper line{stroke:#ffffff;}#my-svg .disabled,#my-svg .disabled circle,#my-svg .disabled text{fill:lightgray;}#my-svg .disabled text{fill:#efefef;}#my-svg .section-3 rect,#my-svg .section-3 path,#my-svg .section-3 circle,#my-svg .section-3 path{fill:hsl(300, 100%, 76.2745098039%);}#my-svg .section-3 text{fill:black;}#my-svg .node-icon-3{font-size:40px;color:black;}#my-svg .section-edge-3{stroke:hsl(300, 100%, 76.2745098039%);}#my-svg .edge-depth-3{stroke-width:5;}#my-svg .section-3 line{stroke:hsl(120, 100%, 86.2745098039%);stroke-width:3;}#my-svg .lineWrapper line{stroke:black;}#my-svg .disabled,#my-svg .disabled circle,#my-svg .disabled text{fill:lightgray;}#my-svg .disabled text{fill:#efefef;}#my-svg .section-4 rect,#my-svg .section-4 path,#my-svg .section-4 circle,#my-svg .section-4 path{fill:hsl(330, 100%, 76.2745098039%);}#my-svg .section-4 text{fill:black;}#my-svg .node-icon-4{font-size:40px;color:black;}#my-svg .section-edge-4{stroke:hsl(330, 100%, 76.2745098039%);}#my-svg .edge-depth-4{stroke-width:2;}#my-svg .section-4 line{stroke:hsl(150, 100%, 86.2745098039%);stroke-width:3;}#my-svg .lineWrapper line{stroke:black;}#my-svg .disabled,#my-svg .disabled circle,#my-svg .disabled text{fill:lightgray;}#my-svg .disabled text{fill:#efefef;}#my-svg .section-5 rect,#my-svg .section-5 path,#my-svg .section-5 circle,#my-svg .section-5 path{fill:hsl(0, 100%, 76.2745098039%);}#my-svg .section-5 text{fill:black;}#my-svg .node-icon-5{font-size:40px;color:black;}#my-svg .section-edge-5{stroke:hsl(0, 100%, 76.2745098039%);}#my-svg .edge-depth-5{stroke-width:-1;}#my-svg .section-5 line{stroke:hsl(180, 100%, 86.2745098039%);stroke-width:3;}#my-svg .lineWrapper line{stroke:black;}#my-svg .disabled,#my-svg .disabled circle,#my-svg .disabled text{fill:lightgray;}#my-svg .disabled text{fill:#efefef;}#my-svg .section-6 rect,#my-svg .section-6 path,#my-svg .section-6 circle,#my-svg .section-6 path{fill:hsl(30, 100%, 76.2745098039%);}#my-svg .section-6 text{fill:black;}#my-svg .node-icon-6{font-size:40px;color:black;}#my-svg .section-edge-6{stroke:hsl(30, 100%, 76.2745098039%);}#my-svg .edge-depth-6{stroke-width:-4;}#my-svg .section-6 line{stroke:hsl(210, 100%, 86.2745098039%);stroke-width:3;}#my-svg .lineWrapper line{stroke:black;}#my-svg .disabled,#my-svg .disabled circle,#my-svg .disabled text{fill:lightgray;}#my-svg .disabled text{fill:#efefef;}#my-svg .section-7 rect,#my-svg .section-7 path,#my-svg .section-7 circle,#my-svg .section-7 path{fill:hsl(90, 100%, 76.2745098039%);}#my-svg .section-7 text{fill:black;}#my-svg .node-icon-7{font-size:40px;color:black;}#my-svg .section-edge-7{stroke:hsl(90, 100%, 76.2745098039%);}#my-svg .edge-depth-7{stroke-width:-7;}#my-svg .section-7 line{stroke:hsl(270, 100%, 86.2745098039%);stroke-width:3;}#my-svg .lineWrapper line{stroke:black;}#my-svg .disabled,#my-svg .disabled circle,#my-svg .disabled text{fill:lightgray;}#my-svg .disabled text{fill:#efefef;}#my-svg .section-8 rect,#my-svg .section-8 path,#my-svg .section-8 circle,#my-svg .section-8 path{fill:hsl(150, 100%, 76.2745098039%);}#my-svg .section-8 text{fill:black;}#my-svg .node-icon-8{font-size:40px;color:black;}#my-svg .section-edge-8{stroke:hsl(150, 100%, 76.2745098039%);}#my-svg .edge-depth-8{stroke-width:-10;}#my-svg .section-8 line{stroke:hsl(330, 100%, 86.2745098039%);stroke-width:3;}#my-svg .lineWrapper line{stroke:black;}#my-svg .disabled,#my-svg .disabled circle,#my-svg .disabled text{fill:lightgray;}#my-svg .disabled text{fill:#efefef;}#my-svg .section-9 rect,#my-svg .section-9 path,#my-svg .section-9 circle,#my-svg .section-9 path{fill:hsl(180, 100%, 76.2745098039%);}#my-svg .section-9 text{fill:black;}#my-svg .node-icon-9{font-size:40px;color:black;}#my-svg .section-edge-9{stroke:hsl(180, 100%, 76.2745098039%);}#my-svg .edge-depth-9{stroke-width:-13;}#my-svg .section-9 line{stroke:hsl(0, 100%, 86.2745098039%);stroke-width:3;}#my-svg .lineWrapper line{stroke:black;}#my-svg .disabled,#my-svg .disabled circle,#my-svg .disabled text{fill:lightgray;}#my-svg .disabled text{fill:#efefef;}#my-svg .section-10 rect,#my-svg .section-10 path,#my-svg .section-10 circle,#my-svg .section-10 path{fill:hsl(210, 100%, 76.2745098039%);}#my-svg .section-10 text{fill:black;}#my-svg .node-icon-10{font-size:40px;color:black;}#my-svg .section-edge-10{stroke:hsl(210, 100%, 76.2745098039%);}#my-svg .edge-depth-10{stroke-width:-16;}#my-svg .section-10 line{stroke:hsl(30, 100%, 86.2745098039%);stroke-width:3;}#my-svg .lineWrapper line{stroke:black;}#my-svg .disabled,#my-svg .disabled circle,#my-svg .disabled text{fill:lightgray;}#my-svg .disabled text{fill:#efefef;}#my-svg .section-root rect,#my-svg .section-root path,#my-svg .section-root circle{fill:hsl(240, 100%, 46.2745098039%);}#my-svg .section-root text{fill:#ffffff;}#my-svg .icon-container{height:100%;display:flex;justify-content:center;align-items:center;}#my-svg .edge{fill:none;}#my-svg .eventWrapper{filter:brightness(120%);}#my-svg :root{--mermaid-font-family:"trebuchet ms",verdana,arial,sans-serif;}</style><g/><g/><defs><marker id="arrowhead" refX="5" refY="2" markerWidth="6" markerHeight="4" orient="auto"><path d="M 0,0 V 4 L6,2 Z"/></marker></defs><g transform="translate(200, 50)"><g class="timeline-node section--1"><g><path id="node-undefined" class="node-bkg node-undefined" d="M0 79.41562347412109 v-74.41562347412109 q0,-5 5,-5 h580 q5,0 5,5 v79.41562347412109 H0 Z"/><line class="node-line--1" x1="0" y1="84.41562347412109" x2="590" y2="84.41562347412109"/></g><g transform="translate(295, 10)"><text dy="1em" alignment-baseline="middle" dominant-baseline="middle" text-anchor="middle"><tspan x="0" dy="1em">🧭   1)   Hazırlık</tspan></text></g></g></g><g class="taskWrapper" transform="translate(200, 184.4156234741211)"><g class="timeline-node section--1"><g><path id="node-undefined" class="node-bkg node-undefined" d="M0 60.815625 v-55.815625 q0,-5 5,-5 h180 q5,0 5,5 v60.815625 H0 Z"/><line class="node-line--1" x1="0" y1="65.815625" x2="190" y2="65.815625"/></g><g transform="translate(95, 10)"><text dy="1em" alignment-baseline="middle" dominant-baseline="middle" text-anchor="middle"><tspan x="0" dy="1em">🔐   Ön   Kontrol</tspan></text></g></g></g><g class="lineWrapper"><line x1="295" y1="250.23124847412112" x2="295" y2="566.4468673706056" stroke-width="2" stroke="black" marker-end="url(#arrowhead)" stroke-dasharray="5,5"/></g><g class="eventWrapper" transform="translate(200, 384.4156234741211)"><g class="timeline-node section--1"><g><path id="node-undefined" class="node-bkg node-undefined" d="M0 76.01562194824218 v-71.01562194824218 q0,-5 5,-5 h180 q5,0 5,5 v76.01562194824218 H0 Z"/><line class="node-line--1" x1="0" y1="81.01562194824218" x2="190" y2="81.01562194824218"/></g><g transform="translate(95, 10)"><text dy="1em" alignment-baseline="middle" dominant-baseline="middle" text-anchor="middle"><tspan x="0" dy="1em">API   key/secret   +</tspan><tspan x="0" dy="1.1em">TRADING_ENV</tspan><tspan x="0" dy="1.1em">doğrulanır</tspan></text></g></g></g><g class="taskWrapper" transform="translate(400, 184.4156234741211)"><g class="timeline-node section--1"><g><path id="node-undefined" class="node-bkg node-undefined" d="M0 60.815625 v-55.815625 q0,-5 5,-5 h180 q5,0 5,5 v60.815625 H0 Z"/><line class="node-line--1" x1="0" y1="65.815625" x2="190" y2="65.815625"/></g><g transform="translate(95, 10)"><text dy="1em" alignment-baseline="middle" dominant-baseline="middle" text-anchor="middle"><tspan x="0" dy="1em">🧪   Smoke   Test</tspan></text></g></g></g><g class="lineWrapper"><line x1="495" y1="250.23124847412112" x2="495" y2="566.4468673706056" stroke-width="2" stroke="black" marker-end="url(#arrowhead)" stroke-dasharray="5,5"/></g><g class="eventWrapper" transform="translate(400, 384.4156234741211)"><g class="timeline-node section--1"><g><path id="node-undefined" class="node-bkg node-undefined" d="M0 76.01562194824218 v-71.01562194824218 q0,-5 5,-5 h180 q5,0 5,5 v76.01562194824218 H0 Z"/><line class="node-line--1" x1="0" y1="81.01562194824218" x2="190" y2="81.01562194824218"/></g><g transform="translate(95, 10)"><text dy="1em" alignment-baseline="middle" dominant-baseline="middle" text-anchor="middle"><tspan x="0" dy="1em">Testnet   kısa   pilot   ile</tspan><tspan x="0" dy="1.1em">bağlantı   ve   emir</tspan><tspan x="0" dy="1.1em">zinciri   kontrol   edilir</tspan></text></g></g></g><g class="taskWrapper" transform="translate(600, 184.4156234741211)"><g class="timeline-node section--1"><g><path id="node-undefined" class="node-bkg node-undefined" d="M0 60.815625 v-55.815625 q0,-5 5,-5 h180 q5,0 5,5 v60.815625 H0 Z"/><line class="node-line--1" x1="0" y1="65.815625" x2="190" y2="65.815625"/></g><g transform="translate(95, 10)"><text dy="1em" alignment-baseline="middle" dominant-baseline="middle" text-anchor="middle"><tspan x="0" dy="1em">✅   Full   Check</tspan></text></g></g></g><g class="lineWrapper"><line x1="695" y1="250.23124847412112" x2="695" y2="566.4468673706056" stroke-width="2" stroke="black" marker-end="url(#arrowhead)" stroke-dasharray="5,5"/></g><g class="eventWrapper" transform="translate(600, 384.4156234741211)"><g class="timeline-node section--1"><g><path id="node-undefined" class="node-bkg node-undefined" d="M0 76.01562194824218 v-71.01562194824218 q0,-5 5,-5 h180 q5,0 5,5 v76.01562194824218 H0 Z"/><line class="node-line--1" x1="0" y1="81.01562194824218" x2="190" y2="81.01562194824218"/></g><g transform="translate(95, 10)"><text dy="1em" alignment-baseline="middle" dominant-baseline="middle" text-anchor="middle"><tspan x="0" dy="1em">GO/NO-GO   için</tspan><tspan x="0" dy="1.1em">readiness   kanıtları</tspan><tspan x="0" dy="1.1em">toplanır</tspan></text></g></g></g><g transform="translate(800, 50)"><g class="timeline-node section-0"><g><path id="node-undefined" class="node-bkg node-undefined" d="M0 79.41562347412109 v-74.41562347412109 q0,-5 5,-5 h780 q5,0 5,5 v79.41562347412109 H0 Z"/><line class="node-line-0" x1="0" y1="84.41562347412109" x2="790" y2="84.41562347412109"/></g><g transform="translate(395, 10)"><text dy="1em" alignment-baseline="middle" dominant-baseline="middle" text-anchor="middle"><tspan x="0" dy="1em">⚙️   2)   Runtime   Başlatma</tspan></text></g></g></g><g class="taskWrapper" transform="translate(800, 184.4156234741211)"><g class="timeline-node section-0"><g><path id="node-undefined" class="node-bkg node-undefined" d="M0 60.815625 v-55.815625 q0,-5 5,-5 h180 q5,0 5,5 v60.815625 H0 Z"/><line class="node-line-0" x1="0" y1="65.815625" x2="190" y2="65.815625"/></g><g transform="translate(95, 10)"><text dy="1em" alignment-baseline="middle" dominant-baseline="middle" text-anchor="middle"><tspan x="0" dy="1em">🚀   Tek   Tık   Başlat</tspan></text></g></g></g><g class="lineWrapper"><line x1="895" y1="250.23124847412112" x2="895" y2="566.4468673706056" stroke-width="2" stroke="black" marker-end="url(#arrowhead)" stroke-dasharray="5,5"/></g><g class="eventWrapper" transform="translate(800, 384.4156234741211)"><g class="timeline-node section-0"><g><path id="node-undefined" class="node-bkg node-undefined" d="M0 58.41562347412109 v-53.41562347412109 q0,-5 5,-5 h180 q5,0 5,5 v58.41562347412109 H0 Z"/><line class="node-line-0" x1="0" y1="63.41562347412109" x2="190" y2="63.41562347412109"/></g><g transform="translate(95, 10)"><text dy="1em" alignment-baseline="middle" dominant-baseline="middle" text-anchor="middle"><tspan x="0" dy="1em">Güvenli   sıralı   akış</tspan><tspan x="0" dy="1.1em">tetiklenir</tspan></text></g></g></g><g class="taskWrapper" transform="translate(1000, 184.4156234741211)"><g class="timeline-node section-0"><g><path id="node-undefined" class="node-bkg node-undefined" d="M0 60.815625 v-55.815625 q0,-5 5,-5 h180 q5,0 5,5 v60.815625 H0 Z"/><line class="node-line-0" x1="0" y1="65.815625" x2="190" y2="65.815625"/></g><g transform="translate(95, 10)"><text dy="1em" alignment-baseline="middle" dominant-baseline="middle" text-anchor="middle"><tspan x="0" dy="1em">🔄   S1   Senkron</tspan></text></g></g></g><g class="lineWrapper"><line x1="1095" y1="250.23124847412112" x2="1095" y2="566.4468673706056" stroke-width="2" stroke="black" marker-end="url(#arrowhead)" stroke-dasharray="5,5"/></g><g class="eventWrapper" transform="translate(1000, 384.4156234741211)"><g class="timeline-node section-0"><g><path id="node-undefined" class="node-bkg node-undefined" d="M0 58.41562347412109 v-53.41562347412109 q0,-5 5,-5 h180 q5,0 5,5 v58.41562347412109 H0 Z"/><line class="node-line-0" x1="0" y1="63.41562347412109" x2="190" y2="63.41562347412109"/></g><g transform="translate(95, 10)"><text dy="1em" alignment-baseline="middle" dominant-baseline="middle" text-anchor="middle"><tspan x="0" dy="1em">Status   +   Preflight   +</tspan><tspan x="0" dy="1.1em">Logs   birlikte   alınır</tspan></text></g></g></g><g class="taskWrapper" transform="translate(1200, 184.4156234741211)"><g class="timeline-node section-0"><g><path id="node-undefined" class="node-bkg node-undefined" d="M0 60.815625 v-55.815625 q0,-5 5,-5 h180 q5,0 5,5 v60.815625 H0 Z"/><line class="node-line-0" x1="0" y1="65.815625" x2="190" y2="65.815625"/></g><g transform="translate(95, 10)"><text dy="1em" alignment-baseline="middle" dominant-baseline="middle" text-anchor="middle"><tspan x="0" dy="1em">📡   S2   Polling</tspan></text></g></g></g><g class="lineWrapper"><line x1="1295" y1="250.23124847412112" x2="1295" y2="566.4468673706056" stroke-width="2" stroke="black" marker-end="url(#arrowhead)" stroke-dasharray="5,5"/></g><g class="eventWrapper" transform="translate(1200, 384.4156234741211)"><g class="timeline-node section-0"><g><path id="node-undefined" class="node-bkg node-undefined" d="M0 93.61562042236328 v-88.61562042236328 q0,-5 5,-5 h180 q5,0 5,5 v93.61562042236328 H0 Z"/><line class="node-line-0" x1="0" y1="98.61562042236328" x2="190" y2="98.61562042236328"/></g><g transform="translate(95, 10)"><text dy="1em" alignment-baseline="middle" dominant-baseline="middle" text-anchor="middle"><tspan x="0" dy="1em">Düzenli</tspan><tspan x="0" dy="1.1em">sağlık/payload</tspan><tspan x="0" dy="1.1em">güncellemeleri</tspan><tspan x="0" dy="1.1em">çalışır</tspan></text></g></g></g><g class="taskWrapper" transform="translate(1400, 184.4156234741211)"><g class="timeline-node section-0"><g><path id="node-undefined" class="node-bkg node-undefined" d="M0 60.815625 v-55.815625 q0,-5 5,-5 h180 q5,0 5,5 v60.815625 H0 Z"/><line class="node-line-0" x1="0" y1="65.815625" x2="190" y2="65.815625"/></g><g transform="translate(95, 10)"><text dy="1em" alignment-baseline="middle" dominant-baseline="middle" text-anchor="middle"><tspan x="0" dy="1em">🤖   S3   Automation</tspan></text></g></g></g><g class="lineWrapper"><line x1="1495" y1="250.23124847412112" x2="1495" y2="566.4468673706056" stroke-width="2" stroke="black" marker-end="url(#arrowhead)" stroke-dasharray="5,5"/></g><g class="eventWrapper" transform="translate(1400, 384.4156234741211)"><g class="timeline-node section-0"><g><path id="node-undefined" class="node-bkg node-undefined" d="M0 58.41562347412109 v-53.41562347412109 q0,-5 5,-5 h180 q5,0 5,5 v58.41562347412109 H0 Z"/><line class="node-line-0" x1="0" y1="63.41562347412109" x2="190" y2="63.41562347412109"/></g><g transform="translate(95, 10)"><text dy="1em" alignment-baseline="middle" dominant-baseline="middle" text-anchor="middle"><tspan x="0" dy="1em">Otomasyon   döngüsü</tspan><tspan x="0" dy="1.1em">etkinleşir</tspan></text></g></g></g><g transform="translate(1600, 50)"><g class="timeline-node section-1"><g><path id="node-undefined" class="node-bkg node-undefined" d="M0 79.41562347412109 v-74.41562347412109 q0,-5 5,-5 h980 q5,0 5,5 v79.41562347412109 H0 Z"/><line class="node-line-1" x1="0" y1="84.41562347412109" x2="990" y2="84.41562347412109"/></g><g transform="translate(495, 10)"><text dy="1em" alignment-baseline="middle" dominant-baseline="middle" text-anchor="middle"><tspan x="0" dy="1em">🧱   3)   Stage   Gate   İlerlemesi</tspan></text></g></g></g><g class="taskWrapper" transform="translate(1600, 184.4156234741211)"><g class="timeline-node section-1"><g><path id="node-undefined" class="node-bkg node-undefined" d="M0 60.815625 v-55.815625 q0,-5 5,-5 h180 q5,0 5,5 v60.815625 H0 Z"/><line class="node-line-1" x1="0" y1="65.815625" x2="190" y2="65.815625"/></g><g transform="translate(95, 10)"><text dy="1em" alignment-baseline="middle" dominant-baseline="middle" text-anchor="middle"><tspan x="0" dy="1em">🥇   Level   1</tspan></text></g></g></g><g class="lineWrapper"><line x1="1695" y1="250.23124847412112" x2="1695" y2="566.4468673706056" stroke-width="2" stroke="black" marker-end="url(#arrowhead)" stroke-dasharray="5,5"/></g><g class="eventWrapper" transform="translate(1600, 384.4156234741211)"><g class="timeline-node section-1"><g><path id="node-undefined" class="node-bkg node-undefined" d="M0 58.41562347412109 v-53.41562347412109 q0,-5 5,-5 h180 q5,0 5,5 v58.41562347412109 H0 Z"/><line class="node-line-1" x1="0" y1="63.41562347412109" x2="190" y2="63.41562347412109"/></g><g transform="translate(95, 10)"><text dy="1em" alignment-baseline="middle" dominant-baseline="middle" text-anchor="middle"><tspan x="0" dy="1em">Ön   Kontrol</tspan><tspan x="0" dy="1.1em">tamamlandı</tspan></text></g></g></g><g class="taskWrapper" transform="translate(1800, 184.4156234741211)"><g class="timeline-node section-1"><g><path id="node-undefined" class="node-bkg node-undefined" d="M0 60.815625 v-55.815625 q0,-5 5,-5 h180 q5,0 5,5 v60.815625 H0 Z"/><line class="node-line-1" x1="0" y1="65.815625" x2="190" y2="65.815625"/></g><g transform="translate(95, 10)"><text dy="1em" alignment-baseline="middle" dominant-baseline="middle" text-anchor="middle"><tspan x="0" dy="1em">🥈   Level   2</tspan></text></g></g></g><g class="lineWrapper"><line x1="1895" y1="250.23124847412112" x2="1895" y2="566.4468673706056" stroke-width="2" stroke="black" marker-end="url(#arrowhead)" stroke-dasharray="5,5"/></g><g class="eventWrapper" transform="translate(1800, 384.4156234741211)"><g class="timeline-node section-1"><g><path id="node-undefined" class="node-bkg node-undefined" d="M0 45 v-40 q0,-5 5,-5 h180 q5,0 5,5 v45 H0 Z"/><line class="node-line-1" x1="0" y1="50" x2="190" y2="50"/></g><g transform="translate(95, 10)"><text dy="1em" alignment-baseline="middle" dominant-baseline="middle" text-anchor="middle"><tspan x="0" dy="1em">Smoke   geçildi</tspan></text></g></g></g><g class="taskWrapper" transform="translate(2000, 184.4156234741211)"><g class="timeline-node section-1"><g><path id="node-undefined" class="node-bkg node-undefined" d="M0 60.815625 v-55.815625 q0,-5 5,-5 h180 q5,0 5,5 v60.815625 H0 Z"/><line class="node-line-1" x1="0" y1="65.815625" x2="190" y2="65.815625"/></g><g transform="translate(95, 10)"><text dy="1em" alignment-baseline="middle" dominant-baseline="middle" text-anchor="middle"><tspan x="0" dy="1em">🥉   Level   3</tspan></text></g></g></g><g class="lineWrapper"><line x1="2095" y1="250.23124847412112" x2="2095" y2="566.4468673706056" stroke-width="2" stroke="black" marker-end="url(#arrowhead)" stroke-dasharray="5,5"/></g><g class="eventWrapper" transform="translate(2000, 384.4156234741211)"><g class="timeline-node section-1"><g><path id="node-undefined" class="node-bkg node-undefined" d="M0 45 v-40 q0,-5 5,-5 h180 q5,0 5,5 v45 H0 Z"/><line class="node-line-1" x1="0" y1="50" x2="190" y2="50"/></g><g transform="translate(95, 10)"><text dy="1em" alignment-baseline="middle" dominant-baseline="middle" text-anchor="middle"><tspan x="0" dy="1em">Full   Check   hazır</tspan></text></g></g></g><g class="taskWrapper" transform="translate(2200, 184.4156234741211)"><g class="timeline-node section-1"><g><path id="node-undefined" class="node-bkg node-undefined" d="M0 60.815625 v-55.815625 q0,-5 5,-5 h180 q5,0 5,5 v60.815625 H0 Z"/><line class="node-line-1" x1="0" y1="65.815625" x2="190" y2="65.815625"/></g><g transform="translate(95, 10)"><text dy="1em" alignment-baseline="middle" dominant-baseline="middle" text-anchor="middle"><tspan x="0" dy="1em">🏁   Level   4</tspan></text></g></g></g><g class="lineWrapper"><line x1="2295" y1="250.23124847412112" x2="2295" y2="566.4468673706056" stroke-width="2" stroke="black" marker-end="url(#arrowhead)" stroke-dasharray="5,5"/></g><g class="eventWrapper" transform="translate(2200, 384.4156234741211)"><g class="timeline-node section-1"><g><path id="node-undefined" class="node-bkg node-undefined" d="M0 45 v-40 q0,-5 5,-5 h180 q5,0 5,5 v45 H0 Z"/><line class="node-line-1" x1="0" y1="50" x2="190" y2="50"/></g><g transform="translate(95, 10)"><text dy="1em" alignment-baseline="middle" dominant-baseline="middle" text-anchor="middle"><tspan x="0" dy="1em">Robotic   döngü   aktif</tspan></text></g></g></g><g class="taskWrapper" transform="translate(2400, 184.4156234741211)"><g class="timeline-node section-1"><g><path id="node-undefined" class="node-bkg node-undefined" d="M0 60.815625 v-55.815625 q0,-5 5,-5 h180 q5,0 5,5 v60.815625 H0 Z"/><line class="node-line-1" x1="0" y1="65.815625" x2="190" y2="65.815625"/></g><g transform="translate(95, 10)"><text dy="1em" alignment-baseline="middle" dominant-baseline="middle" text-anchor="middle"><tspan x="0" dy="1em">🌐   Level   5</tspan></text></g></g></g><g class="lineWrapper"><line x1="2495" y1="250.23124847412112" x2="2495" y2="566.4468673706056" stroke-width="2" stroke="black" marker-end="url(#arrowhead)" stroke-dasharray="5,5"/></g><g class="eventWrapper" transform="translate(2400, 384.4156234741211)"><g class="timeline-node section-1"><g><path id="node-undefined" class="node-bkg node-undefined" d="M0 45 v-40 q0,-5 5,-5 h180 q5,0 5,5 v45 H0 Z"/><line class="node-line-1" x1="0" y1="50" x2="190" y2="50"/></g><g transform="translate(95, 10)"><text dy="1em" alignment-baseline="middle" dominant-baseline="middle" text-anchor="middle"><tspan x="0" dy="1em">Otonom   mod   açılır</tspan></text></g></g></g><g transform="translate(2600, 50)"><g class="timeline-node section-2"><g><path id="node-undefined" class="node-bkg node-undefined" d="M0 79.41562347412109 v-74.41562347412109 q0,-5 5,-5 h580 q5,0 5,5 v79.41562347412109 H0 Z"/><line class="node-line-2" x1="0" y1="84.41562347412109" x2="590" y2="84.41562347412109"/></g><g transform="translate(295, 10)"><text dy="1em" alignment-baseline="middle" dominant-baseline="middle" text-anchor="middle"><tspan x="0" dy="1em">🛡️   4)   GO   Politikası</tspan></text></g></g></g><g class="taskWrapper" transform="translate(2600, 184.4156234741211)"><g class="timeline-node section-2"><g><path id="node-undefined" class="node-bkg node-undefined" d="M0 60.815625 v-55.815625 q0,-5 5,-5 h180 q5,0 5,5 v60.815625 H0 Z"/><line class="node-line-2" x1="0" y1="65.815625" x2="190" y2="65.815625"/></g><g transform="translate(95, 10)"><text dy="1em" alignment-baseline="middle" dominant-baseline="middle" text-anchor="middle"><tspan x="0" dy="1em">📊   Compliance</tspan></text></g></g></g><g class="lineWrapper"><line x1="2695" y1="250.23124847412112" x2="2695" y2="566.4468673706056" stroke-width="2" stroke="black" marker-end="url(#arrowhead)" stroke-dasharray="5,5"/></g><g class="eventWrapper" transform="translate(2600, 384.4156234741211)"><g class="timeline-node section-2"><g><path id="node-undefined" class="node-bkg node-undefined" d="M0 93.61562042236328 v-88.61562042236328 q0,-5 5,-5 h180 q5,0 5,5 v93.61562042236328 H0 Z"/><line class="node-line-2" x1="0" y1="98.61562042236328" x2="190" y2="98.61562042236328"/></g><g transform="translate(95, 10)"><text dy="1em" alignment-baseline="middle" dominant-baseline="middle" text-anchor="middle"><tspan x="0" dy="1em">Preflight   +   Smoke   +</tspan><tspan x="0" dy="1.1em">Logs   +   Robotic   +</tspan><tspan x="0" dy="1.1em">Safety   +   Auto</tspan><tspan x="0" dy="1.1em">puanlanır</tspan></text></g></g></g><g class="taskWrapper" transform="translate(2800, 184.4156234741211)"><g class="timeline-node section-2"><g><path id="node-undefined" class="node-bkg node-undefined" d="M0 60.815625 v-55.815625 q0,-5 5,-5 h180 q5,0 5,5 v60.815625 H0 Z"/><line class="node-line-2" x1="0" y1="65.815625" x2="190" y2="65.815625"/></g><g transform="translate(95, 10)"><text dy="1em" alignment-baseline="middle" dominant-baseline="middle" text-anchor="middle"><tspan x="0" dy="1em">🚦   Policy   Gate</tspan></text></g></g></g><g class="lineWrapper"><line x1="2895" y1="250.23124847412112" x2="2895" y2="566.4468673706056" stroke-width="2" stroke="black" marker-end="url(#arrowhead)" stroke-dasharray="5,5"/></g><g class="eventWrapper" transform="translate(2800, 384.4156234741211)"><g class="timeline-node section-2"><g><path id="node-undefined" class="node-bkg node-undefined" d="M0 58.41562347412109 v-53.41562347412109 q0,-5 5,-5 h180 q5,0 5,5 v58.41562347412109 H0 Z"/><line class="node-line-2" x1="0" y1="63.41562347412109" x2="190" y2="63.41562347412109"/></g><g transform="translate(95, 10)"><text dy="1em" alignment-baseline="middle" dominant-baseline="middle" text-anchor="middle"><tspan x="0" dy="1em">Eşik   altı   NO-GO,</tspan><tspan x="0" dy="1.1em">eşik   üstü   GO</tspan></text></g></g></g><g class="taskWrapper" transform="translate(3000, 184.4156234741211)"><g class="timeline-node section-2"><g><path id="node-undefined" class="node-bkg node-undefined" d="M0 60.815625 v-55.815625 q0,-5 5,-5 h180 q5,0 5,5 v60.815625 H0 Z"/><line class="node-line-2" x1="0" y1="65.815625" x2="190" y2="65.815625"/></g><g transform="translate(95, 10)"><text dy="1em" alignment-baseline="middle" dominant-baseline="middle" text-anchor="middle"><tspan x="0" dy="1em">🧰   Safe   Guards</tspan></text></g></g></g><g class="lineWrapper"><line x1="3095" y1="250.23124847412112" x2="3095" y2="566.4468673706056" stroke-width="2" stroke="black" marker-end="url(#arrowhead)" stroke-dasharray="5,5"/></g><g class="eventWrapper" transform="translate(3000, 384.4156234741211)"><g class="timeline-node section-2"><g><path id="node-undefined" class="node-bkg node-undefined" d="M0 111.21561889648437 v-106.21561889648437 q0,-5 5,-5 h180 q5,0 5,5 v111.21561889648437 H0 Z"/><line class="node-line-2" x1="0" y1="116.21561889648437" x2="190" y2="116.21561889648437"/></g><g transform="translate(95, 10)"><text dy="1em" alignment-baseline="middle" dominant-baseline="middle" text-anchor="middle"><tspan x="0" dy="1em">Kalite   eşiği,</tspan><tspan x="0" dy="1.1em">watchdog,</tspan><tspan x="0" dy="1.1em">auto-pause,</tspan><tspan x="0" dy="1.1em">self-healing</tspan><tspan x="0" dy="1.1em">doğrulanır</tspan></text></g></g></g><g transform="translate(3200, 50)"><g class="timeline-node section-3"><g><path id="node-undefined" class="node-bkg node-undefined" d="M0 79.41562347412109 v-74.41562347412109 q0,-5 5,-5 h780 q5,0 5,5 v79.41562347412109 H0 Z"/><line class="node-line-3" x1="0" y1="84.41562347412109" x2="790" y2="84.41562347412109"/></g><g transform="translate(395, 10)"><text dy="1em" alignment-baseline="middle" dominant-baseline="middle" text-anchor="middle"><tspan x="0" dy="1em">🔁   5)   Otonom   Operasyon</tspan></text></g></g></g><g class="taskWrapper" transform="translate(3200, 184.4156234741211)"><g class="timeline-node section-3"><g><path id="node-undefined" class="node-bkg node-undefined" d="M0 60.815625 v-55.815625 q0,-5 5,-5 h180 q5,0 5,5 v60.815625 H0 Z"/><line class="node-line-3" x1="0" y1="65.815625" x2="190" y2="65.815625"/></g><g transform="translate(95, 10)"><text dy="1em" alignment-baseline="middle" dominant-baseline="middle" text-anchor="middle"><tspan x="0" dy="1em">🧠   Hands-free</tspan></text></g></g></g><g class="lineWrapper"><line x1="3295" y1="250.23124847412112" x2="3295" y2="566.4468673706056" stroke-width="2" stroke="black" marker-end="url(#arrowhead)" stroke-dasharray="5,5"/></g><g class="eventWrapper" transform="translate(3200, 384.4156234741211)"><g class="timeline-node section-3"><g><path id="node-undefined" class="node-bkg node-undefined" d="M0 111.21561889648437 v-106.21561889648437 q0,-5 5,-5 h180 q5,0 5,5 v111.21561889648437 H0 Z"/><line class="node-line-3" x1="0" y1="116.21561889648437" x2="190" y2="116.21561889648437"/></g><g transform="translate(95, 10)"><text dy="1em" alignment-baseline="middle" dominant-baseline="middle" text-anchor="middle"><tspan x="0" dy="1em">Smoke   →   Full</tspan><tspan x="0" dy="1.1em">Check   →   Robotic</tspan><tspan x="0" dy="1.1em">Start   →   Otonom</tspan><tspan x="0" dy="1.1em">Start   sırası   otomatik</tspan><tspan x="0" dy="1.1em">denenir</tspan></text></g></g></g><g class="taskWrapper" transform="translate(3400, 184.4156234741211)"><g class="timeline-node section-3"><g><path id="node-undefined" class="node-bkg node-undefined" d="M0 60.815625 v-55.815625 q0,-5 5,-5 h180 q5,0 5,5 v60.815625 H0 Z"/><line class="node-line-3" x1="0" y1="65.815625" x2="190" y2="65.815625"/></g><g transform="translate(95, 10)"><text dy="1em" alignment-baseline="middle" dominant-baseline="middle" text-anchor="middle"><tspan x="0" dy="1em">⏱️   Cooldown</tspan></text></g></g></g><g class="lineWrapper"><line x1="3495" y1="250.23124847412112" x2="3495" y2="566.4468673706056" stroke-width="2" stroke="black" marker-end="url(#arrowhead)" stroke-dasharray="5,5"/></g><g class="eventWrapper" transform="translate(3400, 384.4156234741211)"><g class="timeline-node section-3"><g><path id="node-undefined" class="node-bkg node-undefined" d="M0 76.01562194824218 v-71.01562194824218 q0,-5 5,-5 h180 q5,0 5,5 v76.01562194824218 H0 Z"/><line class="node-line-3" x1="0" y1="81.01562194824218" x2="190" y2="81.01562194824218"/></g><g transform="translate(95, 10)"><text dy="1em" alignment-baseline="middle" dominant-baseline="middle" text-anchor="middle"><tspan x="0" dy="1em">Mainnet</tspan><tspan x="0" dy="1.1em">arm/cooldown</tspan><tspan x="0" dy="1.1em">kuralları   uygulanır</tspan></text></g></g></g><g class="taskWrapper" transform="translate(3600, 184.4156234741211)"><g class="timeline-node section-3"><g><path id="node-undefined" class="node-bkg node-undefined" d="M0 60.815625 v-55.815625 q0,-5 5,-5 h180 q5,0 5,5 v60.815625 H0 Z"/><line class="node-line-3" x1="0" y1="65.815625" x2="190" y2="65.815625"/></g><g transform="translate(95, 10)"><text dy="1em" alignment-baseline="middle" dominant-baseline="middle" text-anchor="middle"><tspan x="0" dy="1em">📜   Audit   +   Incident</tspan></text></g></g></g><g class="lineWrapper"><line x1="3695" y1="250.23124847412112" x2="3695" y2="566.4468673706056" stroke-width="2" stroke="black" marker-end="url(#arrowhead)" stroke-dasharray="5,5"/></g><g class="eventWrapper" transform="translate(3600, 384.4156234741211)"><g class="timeline-node section-3"><g><path id="node-undefined" class="node-bkg node-undefined" d="M0 76.01562194824218 v-71.01562194824218 q0,-5 5,-5 h180 q5,0 5,5 v76.01562194824218 H0 Z"/><line class="node-line-3" x1="0" y1="81.01562194824218" x2="190" y2="81.01562194824218"/></g><g transform="translate(95, 10)"><text dy="1em" alignment-baseline="middle" dominant-baseline="middle" text-anchor="middle"><tspan x="0" dy="1em">Olaylar,   risk   kararları</tspan><tspan x="0" dy="1.1em">ve   recovery   adımları</tspan><tspan x="0" dy="1.1em">kayda   alınır</tspan></text></g></g></g><g class="taskWrapper" transform="translate(3800, 184.4156234741211)"><g class="timeline-node section-3"><g><path id="node-undefined" class="node-bkg node-undefined" d="M0 60.815625 v-55.815625 q0,-5 5,-5 h180 q5,0 5,5 v60.815625 H0 Z"/><line class="node-line-3" x1="0" y1="65.815625" x2="190" y2="65.815625"/></g><g transform="translate(95, 10)"><text dy="1em" alignment-baseline="middle" dominant-baseline="middle" text-anchor="middle"><tspan x="0" dy="1em">♻️   Recovery   Loop</tspan></text></g></g></g><g class="lineWrapper"><line x1="3895" y1="250.23124847412112" x2="3895" y2="566.4468673706056" stroke-width="2" stroke="black" marker-end="url(#arrowhead)" stroke-dasharray="5,5"/></g><g class="eventWrapper" transform="translate(3800, 384.4156234741211)"><g class="timeline-node section-3"><g><path id="node-undefined" class="node-bkg node-undefined" d="M0 111.21561889648437 v-106.21561889648437 q0,-5 5,-5 h180 q5,0 5,5 v111.21561889648437 H0 Z"/><line class="node-line-3" x1="0" y1="116.21561889648437" x2="190" y2="116.21561889648437"/></g><g transform="translate(95, 10)"><text dy="1em" alignment-baseline="middle" dominant-baseline="middle" text-anchor="middle"><tspan x="0" dy="1em">Hata/risk   artışında</tspan><tspan x="0" dy="1.1em">auto-pause   +</tspan><tspan x="0" dy="1.1em">self-healing   ile</tspan><tspan x="0" dy="1.1em">güvenli   geri   kazanım</tspan><tspan x="0" dy="1.1em">yapılır</tspan></text></g></g></g><text x="1745" font-size="4ex" font-weight="bold" y="20">Robotic Trader CLI · Sistem Çalışma Planı</text><g class="lineWrapper"><line x1="150" y1="300.2312484741211" x2="4240" y2="300.2312484741211" stroke-width="4" stroke="black" marker-end="url(#arrowhead)"/></g></svg>